<?xml version="1.0" standalone="no"?>
<!DOCTYPE svg PUBLIC "-//W3C//DTD SVG 1.1//EN" "http://www.w3.org/Graphics/SVG/1.1/DTD/svg11.dtd" >
<svg xmlns="http://www.w3.org/2000/svg">
<metadata>Generated by IcoMoon</metadata>
<defs>
<font id="iconfont" horiz-adv-x="1024">
<font-face units-per-em="1024" ascent="960" descent="-64" />
<missing-glyph horiz-adv-x="1024" />
<glyph unicode="&#x20;" horiz-adv-x="512" d="" />
<glyph unicode="&#xe907;" glyph-name="bluetens-carender" d="M300.979 274.199l27.316 26.378c4.713 3.767 9.418 3.767 13.185 0 18.843-18.843 40.508-28.261 65.002-28.261 16.014 0 29.206 4.713 39.563 14.131 10.363 8.48 16.014 19.781 16.014 33.912 0 35.796-24.494 53.694-72.537 53.694h-29.206c-6.596 0-9.418 3.767-9.418 10.363v32.974c0 7.534 2.829 10.363 9.418 10.363h29.206c20.727 0 37.679 4.713 48.988 14.131 11.302 8.48 16.014 19.781 16.014 33.912s-4.713 25.432-15.076 34.857c-10.363 8.48-21.665 13.185-35.796 13.185-12.247 0-23.549-2.829-33.912-8.48-7.534-3.767-14.131-9.418-19.781-16.014-4.713-4.713-9.418-5.651-14.131-0.945l-25.432 23.549c-1.884 1.884-2.829 3.767-2.829 6.596s0.945 4.713 2.829 7.534c9.418 12.247 21.665 22.61 35.796 30.145 18.843 10.363 39.563 16.014 62.173 16.014 31.090 0 57.468-8.48 79.133-26.378s32.974-41.447 32.974-69.708c0-20.727-5.651-37.679-17.898-53.694-9.418-11.302-20.727-20.727-35.796-27.316v-1.884c16.959-6.596 31.090-16.014 42.392-29.206 14.131-16.014 20.727-34.857 20.727-55.577 0-30.145-11.302-54.639-32.974-73.482-22.61-19.781-51.81-29.206-87.613-29.206-28.261 0-52.755 5.651-74.42 17.898-7.534 4.713-15.076 9.418-21.665 15.076-2.829 1.884-4.713 4.713-7.534 7.534-1.884 1.884-3.767 3.767-5.651 5.651-2.829 2.829-2.829 7.534 0.945 12.247zM636.347 480.508l-46.159-10.363c-6.596-0.945-10.363 0.945-10.363 7.534l-2.829 25.432c0 4.713 0.945 8.48 4.713 11.302l65.002 54.639c4.713 4.713 10.363 6.596 17.898 6.596h26.378c6.596 0 9.418-2.829 9.418-9.418v-336.306c0-6.596-2.829-10.363-9.418-10.363h-44.275c-6.596 0-10.363 3.767-10.363 10.363v250.584zM737.144-63.997h-450.296c-201.596 0-254.351 166.738-254.351 254.351v403.191c0 201.596 166.738 254.351 254.351 254.351h450.296c201.596 0 254.351-166.738 254.351-254.351v-403.191c0-130.943-70.653-194.061-130.004-223.261-59.351-30.145-117.757-31.090-124.347-31.090zM287.794 755.578c-16.959 0-162.033-6.596-162.033-162.033v-403.191c0-16.014 5.651-162.033 162.033-162.033h450.296c16.014 0 162.033 5.651 162.033 162.033v403.191c0 16.014-5.651 162.033-162.033 162.033h-450.296zM355.618 680.22c-25.432 0-46.159 20.727-46.159 46.159v187.465c0 25.432 20.727 46.159 46.159 46.159s46.159-20.727 46.159-46.159v-187.465c0-25.432-20.727-46.159-46.159-46.159zM688.157 680.22c-25.432 0-46.159 20.727-46.159 46.159v187.465c0 25.432 20.727 46.159 46.159 46.159s46.159-20.727 46.159-46.159v-187.465c0-25.432-20.727-46.159-46.159-46.159z" />
<glyph unicode="&#xe908;" glyph-name="bluetens-circle" d="M512-64c-282.441 0-512 229.563-512 512s229.563 512 512 512 512-229.563 512-512c0-282.441-229.563-512-512-512zM512 921.961c-261.16 0-473.957-212.15-473.957-473.31s212.797-473.957 473.957-473.957c261.16 0 473.957 212.797 473.957 473.957-0.647 260.513-212.797 473.31-473.957 473.31zM512 223.599c-123.807 0-224.406 100.594-224.406 224.406s100.594 224.406 224.406 224.406 224.406-100.594 224.406-224.406-100.594-224.406-224.406-224.406zM512 647.261c-109.624 0-199.256-89.632-199.256-199.256s89.632-199.256 199.256-199.256c109.624 0 199.256 89.632 199.256 199.256s-89.632 199.256-199.256 199.256z" />
<glyph unicode="&#xe909;" glyph-name="bluetens-Close" d="M918.3-32c-7.369 0-14.738 3.684-20.271 9.217l-812.587 901.037c-11.053 11.053-9.217 29.488 1.849 38.692 11.053 11.053 29.488 9.218 38.693-1.849l812.587-901.037c11.053-11.053 9.217-29.488-1.849-38.693-3.684-3.684-11.053-7.369-18.422-7.369zM105.7-32c-7.369 0-12.902 1.849-18.422 7.369-11.053 11.053-12.902 27.639-1.849 38.692l812.587 901.037c11.053 11.053 27.639 12.902 38.693 1.849s12.902-27.639 1.849-38.692l-812.587-901.037c-5.533-5.533-12.902-9.218-20.271-9.218z" />
<glyph unicode="&#xe90a;" glyph-name="bluetens-Cry" d="M949.828 80.385c14.401 0 28.805 4.681 41.047 14.401 28.444 22.685 33.125 64.090 10.44 92.534-119.538 150.503-297.765 236.916-489.315 236.916s-369.777-86.413-489.315-236.916c-22.685-28.444-18.004-69.849 10.44-92.534s69.849-17.642 92.534 10.44c94.335 118.818 235.115 187.228 386.338 187.228s292.006-68.41 386.338-187.228c12.961-16.202 32.044-24.844 51.487-24.844v0zM224.319 597.063c62.65 0 113.417 50.767 113.417 113.417s-50.767 113.417-113.417 113.417c-62.65 0-113.417-50.767-113.417-113.417s50.767-113.417 113.417-113.417v0zM799.325 595.623c62.65 0 113.417 50.767 113.417 113.417s-50.767 113.417-113.417 113.417c-62.65 0-113.417-50.767-113.417-113.417s50.767-113.417 113.417-113.417v0z" />
<glyph unicode="&#xe90c;" glyph-name="bluetens-download" d="M512-64c-282.148 0-512 229.852-512 512s229.852 512 512 512 512-229.852 512-512c0-282.148-229.852-512-512-512zM512 917.388c-258.906 0-469.388-210.482-469.388-469.388s210.482-469.388 469.388-469.388 469.388 210.482 469.388 469.388c0 258.906-211.125 469.388-469.388 469.388zM513.291 352.444c-29.702 0-50.363 25.824-52.297 28.406l-96.847 127.84c-7.103 9.685-5.164 22.599 3.873 29.702 9.685 7.103 22.599 5.164 29.702-3.873l96.847-127.84c3.23-3.873 10.976-11.624 18.722-11.624 5.812 0 11.624 6.455 15.497 11.624l94.265 125.902c7.103 9.685 20.66 11.624 29.702 4.521 9.685-7.103 11.624-20.66 4.521-29.702l-94.265-125.902c-17.431-23.89-36.8-29.054-49.715-29.054 0 0 0 0 0 0zM512 362.776c-11.624 0-21.308 9.685-21.308 21.308v271.82c0 11.624 9.685 21.308 21.308 21.308s21.308-9.685 21.308-21.308v-271.82c0-11.624-9.685-21.308-21.308-21.308zM647.586 261.408h-271.82c-11.624 0-21.308 9.685-21.308 21.308s9.685 21.308 21.308 21.308h271.82c11.624 0 21.308-9.685 21.308-21.308 0-12.267-9.685-21.308-21.308-21.308z" />
<glyph unicode="&#xe90d;" glyph-name="bluetens-download2" d="M515.869 175.399c-63.326 0-109.66 58.688-111.199 61.776l-253.291 335.157c-7.726 10.814-6.176 24.717 4.638 32.432s24.717 6.176 32.432-4.638l253.291-335.157c0 0 33.982-43.246 74.14-43.246 0 0 0 0 0 0 23.167 0 46.335 15.441 67.952 43.246l247.114 328.98c7.726 10.814 21.618 12.353 32.432 4.638s12.353-21.618 4.638-32.432l-247.114-328.98c-30.894-40.158-66.414-61.776-105.022-61.776 0 0 0 0 0 0zM511.231 201.655c-12.353 0-23.167 10.814-23.167 23.167v712.010c0 12.353 10.814 23.167 23.167 23.167s23.167-10.814 23.167-23.167v-712.010c0-12.353-9.265-23.167-23.167-23.167zM868.005-64h-712.010c-12.353 0-23.167 10.814-23.167 23.167s10.814 23.167 23.167 23.167h712.010c12.353 0 23.167-10.814 23.167-23.167s-10.814-23.167-23.167-23.167z" />
<glyph unicode="&#xe912;" glyph-name="bluetens-home" d="M166.148 36.746h692.437v470.648l-345.841 331.557-345.841-331.557v-470.648zM910.462-63.997h-796.941c-29.323 0-52.626 22.555-52.626 50.374v541.32c0 13.535 5.264 26.316 15.038 35.336l398.473 381.932c9.774 9.774 23.309 15.038 36.839 15.038 14.284 0 27.065-5.264 36.839-15.038l398.473-381.932c9.774-9.774 15.038-21.801 15.038-35.336v-541.32c1.503-27.819-21.801-50.374-51.123-50.374zM511.989-63.997c-29.323 0-52.626 22.555-52.626 50.374v299.982c0 27.819 23.309 50.374 52.626 50.374s52.626-22.555 52.626-50.374v-299.982c0-27.819-23.309-50.374-52.626-50.374z" />
<glyph unicode="&#xe914;" glyph-name="bluetens-lock" d="M894.489-63.998h-764.982c-19.441 0-35.726 15.762-35.726 35.726v569.008c0 19.441 15.762 35.726 35.726 35.726h764.982c19.441 0 35.726-15.762 35.726-35.726v-569.008c0-19.964-15.762-35.726-35.726-35.726zM165.233 6.931h693.526v497.552h-693.526v-497.552zM758.935 510.263c-19.441 0-35.726 15.762-35.726 35.726 0 185.465-96.673 342.561-211.209 342.561-74.608 0-145.009-66.199-182.84-172.854-6.83-18.39-26.795-28.372-45.708-21.542-18.39 6.83-28.372 26.795-21.542 45.708 48.864 136.078 144.486 220.14 250.090 220.14 78.283 0 150.789-45.185 204.378-127.146 50.437-77.232 78.283-179.161 78.283-286.867 0-19.964-15.762-35.726-35.726-35.726z" />
<glyph unicode="&#xe916;" glyph-name="bluetens-problem" d="M512-64c-282.294 0-512 229.706-512 512s229.706 512 512 512c282.294 0 512-229.706 512-512s-229.706-512-512-512zM512 916.475c-258.116 0-467.872-209.756-467.872-467.872s209.756-467.872 467.872-467.872c258.116 0 467.872 209.756 467.872 467.872s-209.756 467.872-467.872 467.872zM522.878 322.267l-7.252-21.761c-0.607-1.209-1.209-3.024-1.815-4.835s-1.209-3.626-2.417-6.043c0-0.607 0-0.607-0.607-1.209 0-0.607-0.607-0.607-0.607-1.209-0.607-3.024-1.815-5.441-2.417-7.859s-1.209-4.233-1.209-5.441c0-0.607 0-1.815 0-2.417s0-1.209 0.607-2.417c0.607-2.417 1.209-4.835 3.024-7.252s4.233-3.626 6.65-3.626c3.626 0 7.859 1.209 12.091 4.233 4.233 2.417 8.461 6.043 13.3 10.276 3.626 3.626 6.65 7.252 10.276 11.485s6.65 8.461 9.674 12.693c4.835 6.65 9.674 13.3 13.902 19.343s7.252 10.883 10.276 13.902l22.969-15.717c-3.024-4.835-6.043-9.067-9.067-13.3s-6.043-8.461-9.674-12.693c-14.509-19.343-30.828-36.876-48.962-52.588-18.741-15.717-40.502-23.576-64.68-23.576-1.209 0-2.417 0-4.233 0-1.209 0-3.024 0-4.835 0.607-7.252 0.607-13.902 2.417-20.552 4.835s-12.693 6.043-17.528 11.485c-3.626 3.626-6.65 7.252-9.067 12.091-3.024 4.835-4.835 9.674-6.043 15.111-0.607 1.815-0.607 3.626-1.209 5.441 0 1.815-0.607 3.626-0.607 5.441 0 4.233 0.607 8.461 1.209 13.3s1.815 9.674 3.024 14.509c0.607 2.417 1.209 4.835 1.815 7.859 0.607 2.417 1.815 5.441 2.417 7.859 0.607 1.815 1.209 4.233 1.815 6.043s1.209 3.626 1.815 5.441l32.643 110.623c0.607 0.607 1.209 1.815 1.815 3.626s1.209 3.626 1.815 5.441c0 0.607 0 1.209 0.607 1.815 0 0.607 0.607 1.209 0.607 1.815 0.607 3.024 1.815 5.441 2.417 7.859s1.209 4.233 1.209 5.441c0 12.693-4.233 19.95-12.091 22.367s-16.926 3.626-27.202 4.233c-0.607 0-1.815 0-2.417 0s-1.209 0-2.417 0h-10.276l5.441 29.619 166.837 6.65-61.054-199.48zM515.019 595.494c-10.276 11.485-15.717 24.178-15.717 38.084 0 14.509 5.441 25.993 16.926 35.663s23.576 14.509 36.876 14.509c13.902 0 25.993-5.441 36.269-15.717s15.111-22.367 15.111-36.269c0-13.902-4.835-26.595-15.111-36.876-10.276-10.883-22.969-15.717-37.478-15.717-13.902-0.607-25.993 4.835-36.876 16.319z" />
<glyph unicode="&#xe918;" glyph-name="bluetens-Return" d="M758.162-64c-5.336 0-10.007 2.003-14.008 6.005l-492.324 492.324c-8.003 8.003-8.003 20.682 0 28.016l489.651 489.651c8.003 8.003 20.682 8.003 28.016 0 8.003-8.003 8.003-20.682 0-28.016l-475.643-475.643 478.311-478.311c8.003-8.003 8.003-20.682 0-28.016-3.337-4.002-8.673-6.005-14.008-6.005z" />
<glyph unicode="&#xe919;" glyph-name="bluetens-Set-up" d="M600.791-63.994h-175.922c-19.084 0-36.509 11.615-43.979 29.046-0.833 2.492-1.659 5.81-2.492 8.296l-14.939 61.404-36.509 14.939-54.767-32.364c-7.47-4.978-15.766-7.47-25.727-7.47-13.28 0-25.727 5.81-34.85 14.939l-122.814 122.814c-9.129 8.296-14.939 20.744-14.939 34.024 0 9.955 2.492 18.258 7.47 25.727l32.364 53.94-14.939 36.509-61.404 15.766c-2.492 0.833-5.81 1.659-8.296 2.492-17.425 7.47-29.046 24.895-29.046 43.979v175.922c0 22.403 15.766 41.493 37.342 46.471l61.404 15.766 14.939 36.509-32.364 54.767c-1.659 2.492-2.492 4.978-4.151 7.47-7.47 17.425-3.318 38.175 9.955 51.449l124.473 124.473c13.28 13.28 34.024 17.425 51.449 9.955 2.492-0.833 5.81-2.492 8.296-4.151l53.94-32.364 36.509 14.939 15.766 61.404c4.151 21.576 23.235 37.342 46.471 37.342h175.922c23.235 0 41.493-15.766 46.471-37.342l14.939-61.404 36.509-14.939 53.94 32.364c17.425 11.615 43.979 9.955 59.745-5.81l124.473-124.473c9.129-9.129 14.107-20.744 14.107-33.191 0-9.129-2.492-18.258-7.47-25.727l-32.364-53.94 14.939-36.509 63.069-15.766c20.744-4.978 35.683-24.062 35.683-45.638v-175.922c0-22.403-15.766-41.493-37.342-46.471l-61.404-15.766-14.939-36.509 33.191-55.6c10.788-18.258 8.296-42.32-7.47-58.086l-124.473-124.473c-0.833-0.833-1.659-1.659-2.492-2.492-14.107-12.447-34.024-14.939-50.622-7.47-1.659 0.833-4.151 1.659-5.81 3.318l-54.767 33.191-36.509-14.939-15.766-61.404c-0.833-2.492-1.659-5.81-2.492-8.296-5.81-19.084-23.235-30.705-42.32-30.705zM462.211 30.601h102.071l12.447 50.622c3.318 14.939 14.107 26.554 28.213 32.364l81.321 33.191c14.107 5.81 29.872 4.978 42.32-3.318l44.812-26.554 72.192 72.192-26.554 44.812c-7.47 13.28-9.129 28.213-3.318 42.32l33.191 81.321c5.81 14.107 17.425 24.062 32.364 28.213l50.622 12.447v102.071l-50.622 12.447c-14.939 3.318-26.554 14.107-32.364 28.213l-33.191 81.321c-5.81 14.107-4.978 29.872 3.318 42.32l26.554 44.812-72.192 72.192-45.638-29.046c-13.28-7.47-29.046-9.129-42.32-3.318l-81.321 33.191c-14.107 5.81-24.062 17.425-27.387 32.364l-12.447 50.622h-102.071l-12.447-50.622c-3.318-14.939-14.107-26.554-27.387-32.364l-81.321-33.191c-14.107-5.81-29.872-4.978-42.32 3.318l-44.812 26.554-72.192-72.192 26.554-44.812c7.47-12.447 9.129-28.213 3.318-42.32l-33.191-81.321c-5.81-14.107-17.425-24.062-32.364-28.213l-50.622-12.447v-102.071l50.622-12.447c14.939-3.318 26.554-14.107 32.364-28.213l33.191-81.321c5.81-14.107 4.978-29.872-3.318-42.32l-26.554-44.812 72.192-72.192 44.812 26.554c13.28 7.47 28.213 9.129 42.32 3.318l81.321-33.191c14.107-5.81 24.062-17.425 28.213-32.364l11.615-48.13zM512.827 226.44c-58.918 0-115.344 23.235-156.838 64.729-42.32 42.32-64.729 97.919-64.729 156.838s23.235 115.344 64.729 156.838c42.32 42.32 97.919 64.729 156.838 64.729s115.344-23.235 156.838-64.729c41.493-41.493 64.729-97.919 64.729-156.838s-23.235-115.344-64.729-156.838v0c-41.493-42.32-97.919-64.729-156.838-64.729zM512.827 574.965c-34.024 0-65.555-13.28-89.623-37.342s-37.342-55.6-37.342-89.623c0-34.024 13.28-65.555 37.342-89.623s55.6-37.342 89.623-37.342c34.024 0 65.555 13.28 89.623 37.342 0 0 0 0 0 0 24.062 24.062 37.342 55.6 37.342 89.623s-13.28 65.555-37.342 89.623c-24.062 24.062-55.6 37.342-89.623 37.342z" />
<glyph unicode="&#xe91b;" glyph-name="date" d="M846.534 654.343h-195.176c-20.018 0-36.186 16.168-36.186 36.186s16.168 36.186 36.186 36.186h195.176c20.018 0 36.186-16.168 36.186-36.186 0.385-19.633-16.168-36.186-36.186-36.186zM749.137 556.947c-20.018 0-36.186 16.168-36.186 36.186v195.176c0 20.018 16.168 36.186 36.186 36.186s36.186-16.168 36.186-36.186v-195.176c0-20.018-16.168-36.186-36.186-36.186zM274.865 553.868c-20.018 0-36.186 16.168-36.186 36.186v174.773c0 20.018 16.168 36.186 36.186 36.186s36.186-16.168 36.186-36.186v-174.773c0-20.018-16.168-36.186-36.186-36.186zM749.137 421.441c-148.596 0-269.089 120.879-269.089 269.089s120.493 269.473 269.089 269.473 269.089-120.879 269.089-269.089-120.493-269.473-269.089-269.473zM749.137 887.245c-108.559 0-196.715-88.156-196.715-196.715s88.156-196.715 196.715-196.715c108.559 0 196.715 88.156 196.715 196.715s-88.156 196.715-196.715 196.715zM604.007-63.996h-393.432c-113.179 0-204.8 92.006-204.8 204.8v351.086c0 113.179 92.006 204.8 204.8 204.8h307.584v-72.758h-307.584c-73.142 0-132.427-59.284-132.427-132.427v-351.086c0-73.142 59.284-132.427 132.427-132.427h393.432c73.142 0 132.427 59.284 132.427 132.427v317.978h72.758v-317.978c-0.385-112.409-92.391-204.415-205.185-204.415zM209.421 247.823h50.815c1.539-13.474 6.929-24.637 16.939-33.107s23.098-12.704 39.651-12.704c18.094 0 32.337 4.62 42.731 13.859s15.784 21.173 15.398 35.801c-0.385 14.629-5.774 26.178-16.168 35.031s-25.023 13.474-43.115 13.474h-41.191v42.731h39.651c15.398 0 27.717 4.235 37.341 12.704s14.243 19.248 14.243 32.721c0 12.704-4.62 23.098-13.859 31.182s-21.173 11.933-35.801 11.933c-15.398 0-27.333-4.235-35.801-13.088s-13.088-18.863-13.859-30.412h-50.815c0.77 24.253 10.009 44.656 27.717 61.209 18.094 16.553 42.731 25.023 73.913 25.023 29.257 0 53.125-7.314 71.988-21.943s28.488-33.492 28.872-56.205c0-10.009-1.539-19.633-5.004-28.488s-7.7-16.168-13.474-21.943c-5.39-5.774-11.549-10.394-17.708-13.859s-12.319-5.774-18.094-6.545v-1.925c7.314-0.77 14.629-2.31 21.558-5.774 7.314-3.080 14.243-7.7 20.788-13.474s11.933-13.088 16.168-22.713c4.235-9.239 6.545-20.018 6.545-31.182 0.385-17.708-4.62-33.492-14.629-47.35s-23.868-24.637-41.191-32.337c-17.323-7.7-36.572-11.164-57.744-11.164-17.323 0-32.721 2.31-46.195 6.929s-24.637 11.164-33.107 19.248-15.014 17.708-19.633 28.102c-4.235 10.394-6.545 21.943-6.929 34.262zM463.111 371.396v51.585c8.084 5.774 58.515 40.806 66.213 44.656h35.801v-302.58h-52.354v220.199l-49.66-13.859z" />
<glyph unicode="&#xe91c;" glyph-name="bluetens-start" d="M511.5 956c-280.284 0-507.5-227.216-507.5-507.5s227.216-507.5 507.5-507.5 507.5 227.216 507.5 507.5-227.216 507.5-507.5 507.5zM511.5 36.156c-227.73 0-412.344 184.614-412.344 412.344s184.614 412.344 412.344 412.344 412.344-184.614 412.344-412.344-184.614-412.344-412.344-412.344zM384.624 670.532l380.626-222.032-380.626-222.032v444.064z" />
<glyph unicode="&#xe921;" glyph-name="bluetens-character" d="M827.183-21.355c-9.842 0-18.588 5.466-22.96 15.308-90.208 214.312-184.244 350.989-279.373 406.756-11.48 7.108-15.853 21.867-8.749 33.896s21.867 15.853 33.896 8.749c104.423-61.233 205.018-205.566 299.598-429.717 5.466-12.573-0.549-26.788-13.122-32.254-2.735-2.186-6.014-2.735-9.294-2.735zM27.885-21.355c-2.735 0-5.466 0.549-8.749 1.642-12.573 4.921-19.136 19.136-14.76 31.71 1.093 3.279 30.068 81.459 81.459 173.308 69.978 125.197 144.333 211.577 220.871 256.409 12.029 7.108 26.788 2.735 33.896-8.749 7.108-12.029 2.735-26.788-8.749-33.896-166.201-97.315-279.917-401.286-281.011-404.57-3.279-9.842-13.122-15.853-22.96-15.853zM427.534 369c-141.598 0-256.957 115.359-256.957 256.957s115.359 256.957 256.957 256.957 256.957-115.359 256.957-256.957c0-141.598-115.359-256.957-256.957-256.957zM427.534 833.706c-114.261 0-207.753-92.943-207.753-207.753s92.943-207.753 207.753-207.753 207.753 92.943 207.753 207.753-92.943 207.753-207.753 207.753zM879.122 627.595c-13.667 0-24.602 10.936-24.602 24.602v240.556c0 13.667 10.936 24.602 24.602 24.602s24.602-10.936 24.602-24.602v-240.556c0-13.122-10.936-24.602-24.602-24.602zM999.398 747.875h-240.556c-13.667 0-24.602 10.936-24.602 24.602s10.936 24.602 24.602 24.602h240.556c13.667 0 24.602-10.936 24.602-24.602s-10.936-24.602-24.602-24.602z" />
<glyph unicode="&#xe922;" glyph-name="bluetens-Determine" d="M414.405-13.443l-386.377 397.389c-28.028 29.025-28.028 75.073 1.004 103.101s75.073 28.028 103.101-1.004l266.26-273.269 484.471 657.637c24.025 32.031 70.066 39.039 102.096 15.015s39.039-70.066 15.015-102.096l-585.57-796.779z" />
<glyph unicode="&#xe923;" glyph-name="bluetens-Get-into" d="M933.991 420.012h-856.055c-12.054 0-21.528 9.474-21.528 21.528s9.474 21.528 21.528 21.528h856.055c12.054 0 21.528-9.474 21.528-21.528s-10.332-21.528-21.528-21.528zM464.629-63.997c-5.166 0-11.196 1.722-15.505 6.030-8.61 8.61-8.61 22.393 0 30.145l465.061 469.369-465.061 479.701c-8.61 8.61-7.752 22.393 0.864 30.145 8.61 8.61 22.393 7.752 30.145-0.864l479.701-495.206c7.752-8.61 7.752-21.528 0-30.145l-479.701-484.867c-4.308-2.586-9.474-4.308-15.505-4.308z" />
<glyph unicode="&#xe924;" glyph-name="bluetens-Question-mark" d="M447.837 322.512v63.903c0 188.617 227.785 173.157 227.785 345.283 0 71.633-51.534 133.992-150.483 133.992-123.167 0-179.343-71.633-209.747-103.584-13.913-13.913-25.769-13.913-39.682-1.548l-28.86 25.769c-12.369 10.822-9.278 27.313 0 39.682 0 0 86.58 133.992 278.289 133.992 158.213 0 264.376-92.763 264.376-232.424 0-198.925-240.154-215.93-240.154-340.648v-62.359c0-21.13-16.491-30.404-31.951-30.404h-41.229c-14.43-0.517-28.343 11.339-28.343 28.343zM495.249 109.16c48.442 0 86.58-38.134 86.58-86.58 0-46.899-38.134-86.58-86.58-86.58-46.899 0-86.58 39.682-86.58 86.58 0 48.442 39.168 86.58 86.58 86.58z" />
<glyph unicode="&#xe925;" glyph-name="Battery-1" d="M877.325 210.396h-822.49c-30.157 0-54.833 24.675-54.833 54.833v365.552c0 30.157 24.675 54.833 54.833 54.833h822.49c30.157 0 54.833-24.675 54.833-54.833v-365.552c0-30.157-24.675-54.833-54.833-54.833zM54.834 667.334c-20.104 0-36.556-16.449-36.556-36.556v-365.552c0-20.104 16.449-36.556 36.556-36.556h822.49c20.104 0 36.556 16.449 36.556 36.556v365.552c0 20.104-16.449 36.556-36.556 36.556h-822.49zM992.017 345.647h-45.693c-17.821 0-31.985 14.167-31.985 31.985v137.082c0 17.821 14.167 31.985 31.985 31.985h45.693c17.821 0 31.985-14.167 31.985-31.985v-137.082c0-17.821-14.167-31.985-31.985-31.985zM946.324 528.425c-7.768 0-13.708-5.94-13.708-13.708v-137.082c0-7.768 5.94-13.708 13.708-13.708h45.693c7.768 0 13.708 5.94 13.708 13.708v137.082c0 7.768-5.94 13.708-13.708 13.708h-45.693z" />
<glyph unicode="&#xe926;" glyph-name="Battery-2" d="M877.325 210.396h-822.49c-30.157 0-54.833 24.675-54.833 54.833v365.552c0 30.157 24.675 54.833 54.833 54.833h822.49c30.157 0 54.833-24.675 54.833-54.833v-365.552c0-30.157-24.675-54.833-54.833-54.833zM54.834 667.334c-20.104 0-36.556-16.449-36.556-36.556v-365.552c0-20.104 16.449-36.556 36.556-36.556h822.49c20.104 0 36.556 16.449 36.556 36.556v365.552c0 20.104-16.449 36.556-36.556 36.556h-822.49zM54.834 630.778h205.623v-365.552h-205.623v365.552zM992.017 345.647h-45.693c-17.821 0-31.985 14.167-31.985 31.985v137.082c0 17.821 14.167 31.985 31.985 31.985h45.693c17.821 0 31.985-14.167 31.985-31.985v-137.082c0-17.821-14.167-31.985-31.985-31.985zM946.324 528.425c-7.768 0-13.708-5.94-13.708-13.708v-137.082c0-7.768 5.94-13.708 13.708-13.708h45.693c7.768 0 13.708 5.94 13.708 13.708v137.082c0 7.768-5.94 13.708-13.708 13.708h-45.693z" />
<glyph unicode="&#xe927;" glyph-name="Battery-3" d="M877.325 210.396h-822.49c-30.157 0-54.833 24.675-54.833 54.833v365.552c0 30.157 24.675 54.833 54.833 54.833h822.49c30.157 0 54.833-24.675 54.833-54.833v-365.552c0-30.157-24.675-54.833-54.833-54.833zM54.834 667.334c-20.104 0-36.556-16.449-36.556-36.556v-365.552c0-20.104 16.449-36.556 36.556-36.556h822.49c20.104 0 36.556 16.449 36.556 36.556v365.552c0 20.104-16.449 36.556-36.556 36.556h-822.49zM54.834 630.778h411.245v-365.552h-411.245v365.552zM992.017 345.647h-45.693c-17.821 0-31.985 14.167-31.985 31.985v137.082c0 17.821 14.167 31.985 31.985 31.985h45.693c17.821 0 31.985-14.167 31.985-31.985v-137.082c0-17.821-14.167-31.985-31.985-31.985zM946.324 528.425c-7.768 0-13.708-5.94-13.708-13.708v-137.082c0-7.768 5.94-13.708 13.708-13.708h45.693c7.768 0 13.708 5.94 13.708 13.708v137.082c0 7.768-5.94 13.708-13.708 13.708h-45.693z" />
<glyph unicode="&#xe928;" glyph-name="Battery-4" d="M877.325 210.396h-822.49c-30.157 0-54.833 24.675-54.833 54.833v365.552c0 30.157 24.675 54.833 54.833 54.833h822.49c30.157 0 54.833-24.675 54.833-54.833v-365.552c0-30.157-24.675-54.833-54.833-54.833zM54.834 667.334c-20.104 0-36.556-16.449-36.556-36.556v-365.552c0-20.104 16.449-36.556 36.556-36.556h822.49c20.104 0 36.556 16.449 36.556 36.556v365.552c0 20.104-16.449 36.556-36.556 36.556h-822.49zM56.662 630.778h616.868v-365.552h-616.868v365.552zM992.017 345.647h-45.693c-17.821 0-31.985 14.167-31.985 31.985v137.082c0 17.821 14.167 31.985 31.985 31.985h45.693c17.821 0 31.985-14.167 31.985-31.985v-137.082c0-17.821-14.167-31.985-31.985-31.985zM946.324 528.425c-7.768 0-13.708-5.94-13.708-13.708v-137.082c0-7.768 5.94-13.708 13.708-13.708h45.693c7.768 0 13.708 5.94 13.708 13.708v137.082c0 7.768-5.94 13.708-13.708 13.708h-45.693z" />
<glyph unicode="&#xe929;" glyph-name="Battery-5" d="M877.325 210.396h-822.49c-30.157 0-54.833 24.675-54.833 54.833v365.552c0 30.157 24.675 54.833 54.833 54.833h822.49c30.157 0 54.833-24.675 54.833-54.833v-365.552c0-30.157-24.675-54.833-54.833-54.833zM54.834 667.334c-20.104 0-36.556-16.449-36.556-36.556v-365.552c0-20.104 16.449-36.556 36.556-36.556h822.49c20.104 0 36.556 16.449 36.556 36.556v365.552c0 20.104-16.449 36.556-36.556 36.556h-822.49zM54.834 630.778h822.49v-365.552h-822.49v365.552zM992.017 345.647h-45.693c-17.821 0-31.985 14.167-31.985 31.985v137.082c0 17.821 14.167 31.985 31.985 31.985h45.693c17.821 0 31.985-14.167 31.985-31.985v-137.082c0-17.821-14.167-31.985-31.985-31.985zM946.324 528.425c-7.768 0-13.708-5.94-13.708-13.708v-137.082c0-7.768 5.94-13.708 13.708-13.708h45.693c7.768 0 13.708 5.94 13.708 13.708v137.082c0 7.768-5.94 13.708-13.708 13.708h-45.693z" />
<glyph unicode="&#xe92a;" glyph-name="go" d="M812.8 481.283l-460.8 460.8c-20.48 20.48-51.2 20.48-71.68 0s-20.48-51.2 0-71.68l422.4-424.96-422.4-424.96c-20.48-20.48-20.48-51.2 0-71.68 10.24-10.24 23.040-15.36 35.84-15.36s25.6 5.12 35.84 15.36l460.8 460.8c10.24 10.24 15.36 23.040 15.36 35.84s-5.12 25.6-15.36 35.84z" />
<glyph unicode="&#xe92b;" glyph-name="back" d="M338.569 445.025l416.103 404.751c24.525 23.878 24.525 62.563 0 86.38-24.525 23.847-64.291 23.847-88.817 0l-460.528-447.971c-24.525-23.878-24.525-62.563 0-86.38l460.528-447.909c12.278-11.939 28.351-17.893 44.424-17.893s32.146 5.954 44.393 17.893c24.525 23.878 24.525 62.532 0 86.38l-416.103 404.751z" />
<glyph unicode="&#xe92c;" glyph-name="Wi-Fi2" horiz-adv-x="768" d="M109.446 455.291c-4.858 0-9.719 1.946-13.599 5.826-7.773 7.773-7.773 19.435 0 27.207 158.408 160.345 416.91 161.323 577.261 2.919 7.773-7.773 7.773-19.435 0-27.207s-19.435-7.773-27.207 0c-144.797 142.857-379.011 141.889-521.86-1.946-4.858-4.858-9.719-6.804-14.577-6.804zM178.441 386.297c-4.858 0-9.719 1.946-13.599 5.826-7.773 7.773-7.773 19.435 0 27.207 58.307 59.286 136.057 91.354 219.631 92.322 0.978 0 0.978 0 1.946 0 82.603 0 160.345-32.075 218.655-90.386 7.773-7.773 7.773-19.435 0-27.207s-19.435-7.773-27.207 0c-51.503 50.535-119.539 78.712-191.445 78.712 0 0-0.978 0-0.978 0-72.884 0-140.91-29.154-192.423-80.657-4.858-3.886-9.719-5.826-14.577-5.826zM247.445 318.268c-4.858 0-9.719 1.946-13.599 5.826-7.773 7.773-7.773 19.435 0 27.207 82.603 83.581 218.655 84.549 302.234 0.978 7.773-7.773 7.773-19.435 0-27.207s-19.435-7.773-27.207 0c-69.004 68.026-179.791 67.058-247.811-0.978-3.886-3.886-8.751-5.826-13.599-5.826zM420.421 209.419c-18.464-19.435-49.557-19.435-69.004 0s-19.435 49.557 0 69.004c18.464 19.435 49.557 19.435 69.004 0 18.464-18.464 18.464-49.557 0-69.004z" />
<glyph unicode="&#xe92d;" glyph-name="Wi-Fi3" horiz-adv-x="768" d="M178.441 386.297c-4.858 0-9.719 1.946-13.599 5.826-7.773 7.773-7.773 19.435 0 27.207 58.307 59.286 136.057 91.354 219.631 92.322 0.978 0 0.978 0 1.946 0 82.603 0 160.345-32.075 218.655-90.386 7.773-7.773 7.773-19.435 0-27.207s-19.435-7.773-27.207 0c-51.503 50.535-119.539 78.712-191.445 78.712 0 0-0.978 0-0.978 0-72.884 0-140.91-29.154-192.423-80.657-4.858-3.886-9.719-5.826-14.577-5.826zM247.445 318.268c-4.858 0-9.719 1.946-13.599 5.826-7.773 7.773-7.773 19.435 0 27.207 82.603 83.581 218.655 84.549 302.234 0.978 7.773-7.773 7.773-19.435 0-27.207s-19.435-7.773-27.207 0c-69.004 68.026-179.791 67.058-247.811-0.978-3.886-3.886-8.751-5.826-13.599-5.826zM420.421 209.419c-18.464-19.435-49.557-19.435-69.004 0s-19.435 49.557 0 69.004c18.464 19.435 49.557 19.435 69.004 0 18.464-18.464 18.464-49.557 0-69.004z" />
<glyph unicode="&#xe92e;" glyph-name="Wi-Fi4" horiz-adv-x="768" d="M247.445 318.268c-4.858 0-9.719 1.946-13.599 5.826-7.773 7.773-7.773 19.435 0 27.207 82.603 83.581 218.655 84.549 302.234 0.978 7.773-7.773 7.773-19.435 0-27.207s-19.435-7.773-27.207 0c-69.004 68.026-179.791 67.058-247.811-0.978-3.886-3.886-8.751-5.826-13.599-5.826zM420.421 209.419c-18.464-19.435-49.557-19.435-69.004 0s-19.435 49.557 0 69.004c18.464 19.435 49.557 19.435 69.004 0 18.464-18.464 18.464-49.557 0-69.004z" />
<glyph unicode="&#xe92f;" glyph-name="Wi-Fi5" horiz-adv-x="768" d="M420.421 209.419c-18.464-19.435-49.557-19.435-69.004 0s-19.435 49.557 0 69.004c18.464 19.435 49.557 19.435 69.004 0 18.464-18.464 18.464-49.557 0-69.004z" />
<glyph unicode="&#xe930;" glyph-name="Wi-Fi" horiz-adv-x="768" d="M40.453 523.328c-4.858 0-9.719 1.946-13.599 5.826-7.773 7.773-7.773 19.435 0 27.207 95.234 96.212 221.577 148.693 356.662 149.661 0.978 0 1.946 0 1.946 0 134.116 0 260.45-51.503 355.683-145.768 7.773-7.773 7.773-19.435 0-27.207s-19.435-7.773-27.207 0c-87.461 87.461-204.077 135.084-328.474 135.084-0.978 0-1.946 0-1.946 0-124.387-0.978-241.98-49.557-329.442-137.996-3.886-4.858-8.751-6.804-13.599-6.804zM109.446 455.291c-4.858 0-9.719 1.946-13.599 5.826-7.773 7.773-7.773 19.435 0 27.207 158.408 160.345 416.91 161.323 577.261 2.919 7.773-7.773 7.773-19.435 0-27.207s-19.435-7.773-27.207 0c-144.797 142.857-379.011 141.889-521.86-1.946-4.858-4.858-9.719-6.804-14.577-6.804zM178.441 386.297c-4.858 0-9.719 1.946-13.599 5.826-7.773 7.773-7.773 19.435 0 27.207 58.307 59.286 136.057 91.354 219.631 92.322 0.978 0 0.978 0 1.946 0 82.603 0 160.345-32.075 218.655-90.386 7.773-7.773 7.773-19.435 0-27.207s-19.435-7.773-27.207 0c-51.503 50.535-119.539 78.712-191.445 78.712 0 0-0.978 0-0.978 0-72.884 0-140.91-29.154-192.423-80.657-4.858-3.886-9.719-5.826-14.577-5.826zM247.445 318.268c-4.858 0-9.719 1.946-13.599 5.826-7.773 7.773-7.773 19.435 0 27.207 82.603 83.581 218.655 84.549 302.234 0.978 7.773-7.773 7.773-19.435 0-27.207s-19.435-7.773-27.207 0c-69.004 68.026-179.791 67.058-247.811-0.978-3.886-3.886-8.751-5.826-13.599-5.826zM420.421 209.419c-18.464-19.435-49.557-19.435-69.004 0s-19.435 49.557 0 69.004c18.464 19.435 49.557 19.435 69.004 0 18.464-18.464 18.464-49.557 0-69.004z" />
<glyph unicode="&#xe95c;" glyph-name="smile" d="M74.281 419.957c-14.402 0-28.801-4.548-40.93-14.402-28.423-22.739-33.351-64.048-10.612-92.471 119.758-150.075 297.877-236.484 489.261-236.484s369.503 86.407 489.261 236.861c22.739 28.423 17.811 69.732-10.612 92.471s-69.732 17.811-92.471-10.612c-94.365-119-234.967-187.215-386.181-187.215-150.834 0-291.813 68.216-386.181 187.215-12.885 16.296-32.213 24.634-51.54 24.634v0zM224.736 592.774c62.531 0 113.316 50.783 113.316 113.316s-50.783 113.316-113.316 113.316-113.316-50.783-113.316-113.316 50.783-113.316 113.316-113.316v0zM799.268 591.256c62.531 0 113.316 50.783 113.316 113.316s-50.783 113.316-113.316 113.316-113.316-50.783-113.316-113.316 50.783-113.316 113.316-113.316v0z" />
<glyph unicode="&#xe95e;" glyph-name="bluetens-star-outline" d="M960.699 606.444l-307.945 3.723-96.815 288.582c-14.15 42.077-73.728 42.821-88.622 0.745l-103.89-291.189-300.126-3.351c-44.312-0.372-63.302-56.227-28.672-83.782l242.409-192.885-90.112-296.401c-13.033-42.449 35.002-77.451 71.866-52.131l252.091 175.011 252.835-174.266c36.492-25.321 84.527 9.682 71.494 52.131l-88.995 295.657 243.526 194.746c34.258 27.182 15.267 83.037-29.044 83.41zM638.976 376.696l69.26-230.121-196.98 135.913-196.98-137.030 70.005 231.238-187.671 149.318 234.589 2.606 81.548 227.515 75.962-226.398 238.686-2.606-188.416-150.435z" />
<glyph unicode="&#xe95f;" glyph-name="bluetens-star2" d="M276.941 328.331l-90.079-296.293c-13.028-42.434 34.989-77.423 71.84-52.112l251.998 174.947 252.742-174.202c36.479-25.312 84.496 9.678 71.468 52.112l-88.963 295.549 243.437 194.675c34.617 27.545 15.262 83.006-28.662 83.751l-307.832 3.722-96.78 288.476c-14.517 41.689-74.073 42.434-88.963 0.372l-103.851-291.082-300.016-3.35c-44.295-0.372-63.279-56.206-28.662-83.751l242.32-192.814z" />
<glyph unicode="&#xe960;" glyph-name="time" horiz-adv-x="1036" d="M518 955.736c-279.561 0-507.733-228.173-507.733-507.733s228.173-507.733 507.733-507.733c279.561 0 507.733 228.173 507.733 507.733s-226.116 507.733-507.733 507.733zM805.784 339.057c0 0 0 0 0 0h-374.119v339.175c0 41.112 32.89 74.002 74.002 76.058 0 0 0 0 0 0 41.112 0 74.002-32.89 74.002-74.002v-189.115h226.116c41.112 0 74.002-32.89 74.002-76.058 2.056-43.168-32.89-76.058-74.002-76.058z" />
<glyph unicode="&#xe963;" glyph-name="delete" d="M512 89.6v0c-98.304 0-188.416 40.96-253.952 104.448-65.536 65.536-104.448 155.648-104.448 253.952s40.96 188.416 104.448 253.952c65.536 65.536 153.6 104.448 253.952 104.448 98.304 0 188.416-40.96 253.952-104.448 65.536-65.536 104.448-153.6 104.448-253.952 0-98.304-40.96-188.416-104.448-253.952-65.536-65.536-155.648-104.448-253.952-104.448zM512 945.664c-274.432 0-497.664-223.232-497.664-497.664s223.232-497.664 497.664-497.664c274.432 0 497.664 223.232 497.664 497.664s-223.232 497.664-497.664 497.664zM622.592 282.112c6.144-6.144 18.432-6.144 26.624 0l30.72 30.72c6.144 6.144 8.192 18.432 0 26.624l-108.544 108.544 110.592 110.592c6.144 6.144 6.144 18.432 0 26.624l-30.72 30.72c-6.144 6.144-18.432 8.192-26.624 0l-112.64-108.544-110.592 110.592c-6.144 6.144-18.432 6.144-26.624 0l-30.72-30.72c-6.144-6.144-8.192-18.432 0-26.624l110.592-110.592-110.592-110.592c-6.144-6.144-6.144-20.48 0-26.624l30.72-30.72c6.144-6.144 20.48-6.144 26.624 0l110.592 110.592 110.592-110.592z" />
<glyph unicode="&#xe964;" glyph-name="nav" d="M719.872 449.024l-415.744-241.664v481.28z" />
<glyph unicode="&#xe965;" glyph-name="used" d="M512 944.896c-273.621 0-496.896-223.275-496.896-496.896s223.275-496.896 496.896-496.896c273.621 0 496.896 223.275 496.896 496.896s-221.086 496.896-496.896 496.896zM789.999 699.731l-249.542-400.581-80.992 111.637-148.85-258.298c-8.756-13.134-21.89-21.89-37.212-21.89-6.567 0-15.323 2.189-21.89 6.567-21.89 10.945-28.457 39.401-15.323 59.102l216.708 376.503 83.181-116.015 181.684 291.133c13.134 19.701 39.401 26.268 61.291 13.134 17.512-15.323 24.079-41.59 10.945-61.291z" />
<glyph unicode="&#xe966;" glyph-name="bluetens-bold-circle" d="M512 960c-282.4 0-512-229.6-512-512s229.6-512 512-512 512 229.6 512 512-229.6 512-512 512zM512 223.6c-123.8 0-224.4 100.6-224.4 224.4s100.6 224.4 224.4 224.4 224.4-100.6 224.4-224.4-100.6-224.4-224.4-224.4z" />
<glyph unicode="&#xf002;" glyph-name="search" horiz-adv-x="951" d="M658.286 484.571q0 105.714-75.143 180.857t-180.857 75.143-180.857-75.143-75.143-180.857 75.143-180.857 180.857-75.143 180.857 75.143 75.143 180.857zM950.857 9.143q0-29.714-21.714-51.429t-51.429-21.714q-30.857 0-51.429 21.714l-196 195.429q-102.286-70.857-228-70.857-81.714 0-156.286 31.714t-128.571 85.714-85.714 128.571-31.714 156.286 31.714 156.286 85.714 128.571 128.571 85.714 156.286 31.714 156.286-31.714 128.571-85.714 85.714-128.571 31.714-156.286q0-125.714-70.857-228l196-196q21.143-21.143 21.143-51.429z" />
<glyph unicode="&#xf005;" glyph-name="star" horiz-adv-x="951" d="M950.857 590.286q0-12.571-14.857-27.429l-207.429-202.286 49.143-285.714q0.571-4 0.571-11.429 0-12-6-20.286t-17.429-8.286q-10.857 0-22.857 6.857l-256.571 134.857-256.571-134.857q-12.571-6.857-22.857-6.857-12 0-18 8.286t-6 20.286q0 3.429 1.143 11.429l49.143 285.714-208 202.286q-14.286 15.429-14.286 27.429 0 21.143 32 26.286l286.857 41.714 128.571 260q10.857 23.429 28 23.429t28-23.429l128.571-260 286.857-41.714q32-5.143 32-26.286z" />
<glyph unicode="&#xf006;" glyph-name="star_empty" horiz-adv-x="951" d="M649.714 386.286l174.857 169.714-241.143 35.429-108 218.286-108-218.286-241.143-35.429 174.857-169.714-41.714-240.571 216 113.714 215.429-113.714zM950.857 590.286q0-12.571-14.857-27.429l-207.429-202.286 49.143-285.714q0.571-4 0.571-11.429 0-28.571-23.429-28.571-10.857 0-22.857 6.857l-256.571 134.857-256.571-134.857q-12.571-6.857-22.857-6.857-12 0-18 8.286t-6 20.286q0 3.429 1.143 11.429l49.143 285.714-208 202.286q-14.286 15.429-14.286 27.429 0 21.143 32 26.286l286.857 41.714 128.571 260q10.857 23.429 28 23.429t28-23.429l128.571-260 286.857-41.714q32-5.143 32-26.286z" />
<glyph unicode="&#xf041;" glyph-name="map_marker" horiz-adv-x="585" d="M438.857 594.286q0 60.571-42.857 103.429t-103.429 42.857-103.429-42.857-42.857-103.429 42.857-103.429 103.429-42.857 103.429 42.857 42.857 103.429zM585.143 594.286q0-62.286-18.857-102.286l-208-442.286q-9.143-18.857-27.143-29.714t-38.571-10.857-38.571 10.857-26.571 29.714l-208.571 442.286q-18.857 40-18.857 102.286 0 121.143 85.714 206.857t206.857 85.714 206.857-85.714 85.714-206.857z" />
<glyph unicode="&#xf0e5;" glyph-name="comment_alt" d="M512 740.571q-116.571 0-218-39.714t-161.143-107.143-59.714-145.714q0-64 40.857-122t115.143-100.286l49.714-28.571-15.429-54.857q-13.714-52-40-98.286 86.857 36 157.143 97.714l24.571 21.714 32.571-3.429q39.429-4.571 74.286-4.571 116.571 0 218 39.714t161.143 107.143 59.714 145.714-59.714 145.714-161.143 107.143-218 39.714zM1024 448q0-99.429-68.571-183.714t-186.286-133.143-257.143-48.857q-40 0-82.857 4.571-113.143-100-262.857-138.286-28-8-65.143-12.571h-2.857q-8.571 0-15.429 6t-9.143 15.714v0.571q-1.714 2.286-0.286 6.857t1.143 5.714 2.571 5.429l3.429 5.143t4 4.857 4.571 5.143q4 4.571 17.714 19.714t19.714 21.714 17.714 22.571 18.571 29.143 15.429 33.714 14.857 43.429q-89.714 50.857-141.429 125.714t-51.714 160.571q0 99.429 68.571 183.714t186.286 133.143 257.143 48.857 257.143-48.857 186.286-133.143 68.571-183.714z" />
<glyph unicode="&#xf0e6;" glyph-name="comments_alt" d="M402.286 740.571q-87.429 0-163.429-29.714t-120.857-80.571-44.857-109.143q0-46.857 30.286-90.286t85.143-75.429l55.429-32-20-48q19.429 11.429 35.429 22.286l25.143 17.714 30.286-5.714q44.571-8 87.429-8 87.429 0 163.429 29.714t120.857 80.571 44.857 109.143-44.857 109.143-120.857 80.571-163.429 29.714zM402.286 813.714q109.143 0 202-39.143t146.571-106.571 53.714-146.857-53.714-146.857-146.571-106.571-202-39.143q-49.143 0-100.571 9.143-70.857-50.286-158.857-73.143-20.571-5.143-49.143-9.143h-1.714q-6.286 0-11.714 4.571t-6.571 12q-0.571 1.714-0.571 3.714t0.286 3.714 1.143 3.429l1.429 2.857t2 3.143 2.286 2.857 2.571 2.857 2.286 2.571q2.857 3.429 13.143 14.286t14.857 16.857 12.857 16.571 14.286 22 11.714 25.143q-70.857 41.143-111.429 101.143t-40.571 128q0 79.429 53.714 146.857t146.571 106.571 202 39.143zM872 145.714q5.714-13.714 11.714-25.143t14.286-22 12.857-16.571 14.857-16.857 13.143-14.286q0.571-0.571 2.286-2.571t2.571-2.857 2.286-2.857 2-3.143l1.429-2.857t1.143-3.429 0.286-3.714-0.571-3.714q-1.714-8-7.429-12.571t-12.571-4q-28.571 4-49.143 9.143-88 22.857-158.857 73.143-51.429-9.143-100.571-9.143-154.857 0-269.714 75.429 33.143-2.286 50.286-2.286 92 0 176.571 25.714t150.857 73.714q71.429 52.571 109.714 121.143t38.286 145.143q0 44-13.143 86.857 73.714-40.571 116.571-101.714t42.857-131.429q0-68.571-40.571-128.286t-111.429-100.857z" />
<glyph unicode="&#xf15b;" glyph-name="file" d="M585.143 667.429v269.714q12.571-8 20.571-16l233.143-233.143q8-8 16-20.571h-269.714zM512 649.143q0-22.857 16-38.857t38.857-16h310.857v-603.429q0-22.857-16-38.857t-38.857-16h-768q-22.857 0-38.857 16t-16 38.857v914.286q0 22.857 16 38.857t38.857 16h457.143v-310.857z" />
<glyph unicode="&#xf15c;" glyph-name="file_text" d="M838.857 688q8-8 16-20.571h-269.714v269.714q12.571-8 20.571-16zM566.857 594.286h310.857v-603.429q0-22.857-16-38.857t-38.857-16h-768q-22.857 0-38.857 16t-16 38.857v914.286q0 22.857 16 38.857t38.857 16h457.143v-310.857q0-22.857 16-38.857t38.857-16zM658.286 173.714v36.571q0 8-5.143 13.143t-13.143 5.143h-402.286q-8 0-13.143-5.143t-5.143-13.143v-36.571q0-8 5.143-13.143t13.143-5.143h402.286q8 0 13.143 5.143t5.143 13.143zM658.286 320v36.571q0 8-5.143 13.143t-13.143 5.143h-402.286q-8 0-13.143-5.143t-5.143-13.143v-36.571q0-8 5.143-13.143t13.143-5.143h402.286q8 0 13.143 5.143t5.143 13.143zM658.286 466.286v36.571q0 8-5.143 13.143t-13.143 5.143h-402.286q-8 0-13.143-5.143t-5.143-13.143v-36.571q0-8 5.143-13.143t13.143-5.143h402.286q8 0 13.143 5.143t5.143 13.143z" />
<glyph unicode="&#xf204;" glyph-name="_484" horiz-adv-x="1170" d="M658.286 448q0 59.429-23.143 113.429t-62.571 93.429-93.429 62.571-113.429 23.143-113.429-23.143-93.429-62.571-62.571-93.429-23.143-113.429 23.143-113.429 62.571-93.429 93.429-62.571 113.429-23.143 113.429 23.143 93.429 62.571 62.571 93.429 23.143 113.429zM1097.143 448q0 59.429-23.143 113.429t-62.571 93.429-93.429 62.571-113.429 23.143h-220.571q68-51.429 107.714-128t39.714-164.571-39.714-164.571-107.714-128h220.571q59.429 0 113.429 23.143t93.429 62.571 62.571 93.429 23.143 113.429zM1170.286 448q0-74.286-29.143-142t-78-116.571-116.571-78-142-29.143h-438.857q-74.286 0-142 29.143t-116.571 78-78 116.571-29.143 142 29.143 142 78 116.571 116.571 78 142 29.143h438.857q74.286 0 142-29.143t116.571-78 78-116.571 29.143-142z" />
<glyph unicode="&#xf205;" glyph-name="_485" horiz-adv-x="1170" d="M0 448q0 74.286 29.143 142t78 116.571 116.571 78 142 29.143h438.857q74.286 0 142-29.143t116.571-78 78-116.571 29.143-142-29.143-142-78-116.571-116.571-78-142-29.143h-438.857q-74.286 0-142 29.143t-116.571 78-78 116.571-29.143 142zM804.571 155.429q59.429 0 113.429 23.143t93.429 62.571 62.571 93.429 23.143 113.429-23.143 113.429-62.571 93.429-93.429 62.571-113.429 23.143-113.429-23.143-93.429-62.571-62.571-93.429-23.143-113.429 23.143-113.429 62.571-93.429 93.429-62.571 113.429-23.143z" />
<glyph unicode="&#xf2ac;" glyph-name="uniF2AC" horiz-adv-x="951" d="M484.571 886.857q76.571 0.571 137.429-39.143t93.429-110q15.429-33.143 15.429-102.286 0-26.857-5.143-109.143 8-4 16-4 10.286 0 29.143 7.714t29.143 7.714q16.571 0 32-10.286t15.429-26.286q0-18.286-18-30.857t-39.429-18-39.429-16.571-18-27.143q0-8.571 6.857-24.571 21.143-46.857 58.571-85.714t82.571-57.714q16-6.857 45.714-13.143 16-3.429 16-20 0-40-125.143-58.857-4-6.286-6.286-22.286t-8-26.571-18.857-10.571q-11.429 0-35.429 3.714t-36.571 3.714q-21.143 0-35.429-2.857-18.286-2.857-36-12.857t-33.143-21.714-33.143-23.143-43.429-19.143-56.571-7.714q-29.714 0-55.143 7.714t-42.857 19.143-32.857 23.143-33.143 21.714-35.429 12.857q-14.857 2.857-36 2.857-13.714 0-37.429-4.286t-33.429-4.286q-14.286 0-20 10.571t-8 27.143-6.286 22.857q-125.143 18.857-125.143 58.857 0 16.571 16 20 29.714 6.286 45.714 13.143 44.571 18.286 82.571 57.714t58.571 85.714q6.857 16 6.857 24.571 0 16-18 27.143t-39.714 16.857-39.714 18-18 30q0 15.429 14.857 26t31.429 10.571q8.571 0 27.429-7.429t30.286-7.429q10.286 0 18.286 4-5.143 81.143-5.143 108.571 0 69.714 15.429 102.857 36.571 78.286 98.286 113.143t150.857 36z" />
<glyph unicode="&#xf2ad;" glyph-name="uniF2AD" d="M731.429 304q0 12.571-12.571 15.429-38.286 8-67.429 33.143t-45.714 62.286q-4 8-4 14.286 0 8.571 11.143 14.857t24.286 9.714 24.286 11.714 11.143 20.857q0 10.857-10.571 18t-22 7.143q-6.286 0-17.714-4.571t-18.286-4.571q-2.286 0-6.857 1.143 2.857 36 2.857 65.714 0 44.571-9.714 65.143-20.571 44.571-58.571 69.429t-87.143 24.857q-113.143 0-157.143-94.286-10.286-21.714-10.286-65.714 0-21.714 3.429-65.143-5.714-1.143-8.571-1.143-6.286 0-18 4.571t-17.429 4.571q-11.429 0-21.429-7.143t-10-18.571q0-12 11.143-20.286t24.286-11.714 24.286-9.714 11.143-14.857q0-6.286-4-14.286-36.571-78.857-113.143-95.429-12.571-2.857-12.571-15.429 0-26.857 78.857-39.429 1.143-2.857 3.429-14.857t6.286-17.429 13.143-5.429q7.429 0 22 2.857t22 2.857q20 0 38.571-8.571t31.143-18.571 32.857-18.571 43.714-8.571q24.571 0 45.143 8.571t32.857 18.571 30.857 18.571 38.571 8.571q7.429 0 22.286-2.571t22.286-2.571q8.571 0 12.857 5.429t6.571 17.714 2.857 14q78.857 12.571 78.857 39.429zM877.714 722.286v-548.571q0-68-48.286-116.286t-116.286-48.286h-548.571q-68 0-116.286 48.286t-48.286 116.286v548.571q0 68 48.286 116.286t116.286 48.286h548.571q68 0 116.286-48.286t48.286-116.286z" />
<glyph unicode="&#xf2bd;" glyph-name="uniF2BD" d="M870.286 194.857q-12.571 88.571-50 147.143t-105.429 67.714q-38.286-42.286-91.143-66t-111.714-23.714-111.714 23.714-91.143 66q-68-9.143-105.429-67.714t-50-147.143q60.571-85.714 154.857-135.714t203.429-50 203.429 50 154.857 135.714zM731.429 594.286q0 90.857-64.286 155.143t-155.143 64.286-155.143-64.286-64.286-155.143 64.286-155.143 155.143-64.286 155.143 64.286 64.286 155.143zM1024 448q0-104-40.571-198.571t-108.857-163.429-163.143-109.429-199.429-40.571q-104 0-198.857 40.571t-163.429 109.143-109.143 163.429-40.571 198.857 40.571 198.857 109.143 163.429 163.429 109.143 198.857 40.571 198.857-40.571 163.429-109.143 109.143-163.429 40.571-198.857z" />
<glyph unicode="&#xf2be;" glyph-name="uniF2BE" d="M512 960q104 0 198.857-40.571t163.429-109.143 109.143-163.429 40.571-198.857q0-103.429-40.286-198.286t-108.857-163.429-163.429-109.429-199.429-40.857-199.429 40.571-163.143 109.429-108.857 163.429-40.571 198.571 40.571 198.857 109.143 163.429 163.429 109.143 198.857 40.571zM865.714 188q85.143 117.143 85.143 260 0 89.143-34.857 170.286t-93.714 140-140 93.714-170.286 34.857-170.286-34.857-140-93.714-93.714-140-34.857-170.286q0-142.857 85.143-260 37.714 186.857 174.857 186.857 74.857-73.143 178.857-73.143t178.857 73.143q137.143 0 174.857-186.857zM731.429 557.714q0 90.857-64.286 155.143t-155.143 64.286-155.143-64.286-64.286-155.143 64.286-155.143 155.143-64.286 155.143 64.286 64.286 155.143z" />
</font>
</defs>
</svg>
